# xmcd
#
# Track frame offsets:
#	150
#	17099
#	34845
#	45573
#	56662
#	67936
#	84984
#	97836
#	122102
#	132580
#	154049
#	166049
#	182207
#
# Disc length: 2689 seconds
#
# Revision: 0
# Processed by: cddbd v1.5.1PL0 Copyright (c) Steve Scherf et al.
# Submitted via: dBpowerAMP V4.0
#
DISCID=a00a7f0d
DTITLE=Instrumental - Instrumental
DYEAR=1900
DGENRE=
TTITLE0=Biscaya
TTITLE1=Lady in red
TTITLE2=Ballade pour Adeline
TTITLE3=Hernando's hideway
TTITLE4=Chanson D'amour
TTITLE5=Verde
TTITLE6=Dolce Maria
TTITLE7=Love story
TTITLE8=True Love
TTITLE9=Killing me softly
TTITLE10=Young woman
TTITLE11=Dream concerto
TTITLE12=Only you
EXTD=instrumental, x_atrix
EXTT0=
EXTT1=
EXTT2=
EXTT3=
EXTT4=
EXTT5=
EXTT6=
EXTT7=
EXTT8=
EXTT9=
EXTT10=
EXTT11=
EXTT12=
PLAYORDER=
